<?xml version="1.0" encoding="UTF-8" standalone="no"?>
<svg
   height="100.45239"
   width="167.98174"
   version="1.1"
   viewBox="0 0 167.98174 100.45239"
   id="svg13"
   sodipodi:docname="aws.svg"
   inkscape:version="1.1 (ce6663b3b7, 2021-05-25)"
   xmlns:inkscape="http://www.inkscape.org/namespaces/inkscape"
   xmlns:sodipodi="http://sodipodi.sourceforge.net/DTD/sodipodi-0.dtd"
   xmlns="http://www.w3.org/2000/svg"
   xmlns:svg="http://www.w3.org/2000/svg"
   xmlns:rdf="http://www.w3.org/1999/02/22-rdf-syntax-ns#"
   xmlns:cc="http://creativecommons.org/ns#"
   xmlns:dc="http://purl.org/dc/elements/1.1/">
  <defs
     id="defs17" />
  <sodipodi:namedview
     id="namedview15"
     pagecolor="#ffffff"
     bordercolor="#666666"
     borderopacity="1.0"
     inkscape:pageshadow="2"
     inkscape:pageopacity="0.0"
     inkscape:pagecheckerboard="0"
     showgrid="false"
     fit-margin-top="0"
     fit-margin-left="0"
     fit-margin-right="0"
     fit-margin-bottom="0"
     inkscape:zoom="4.1833333"
     inkscape:cx="122.03187"
     inkscape:cy="90"
     inkscape:window-width="3368"
     inkscape:window-height="1376"
     inkscape:window-x="0"
     inkscape:window-y="0"
     inkscape:window-maximized="1"
     inkscape:current-layer="svg13" />
  <!-- Generator: Sketch 53.2 (72643) - https://sketchapp.com -->
  <title
     id="title2">Amazon_Web_Services_Logo</title>
  <desc
     id="desc4">Created with Sketch.</desc>
  <g
     id="Page-1"
     fill-rule="evenodd"
     fill="none"
     transform="matrix(0.5586896,0,0,0.5586896,-0.37319513,-0.05586896)">
    <g
       id="Amazon_Web_Services_Logo">
      <path
         id="Shape"
         fill-rule="nonzero"
         fill="#252f3e"
         d="m 85.4,65.4 c 0,3.7 0.4,6.7 1.1,8.9 0.8,2.2 1.8,4.6 3.2,7.2 0.5,0.8 0.7,1.6 0.7,2.3 0,1 -0.6,2 -1.9,3 L 82.2,91 c -0.9,0.6 -1.8,0.9 -2.6,0.9 -1,0 -2,-0.5 -3,-1.4 C 75.2,89 74,87.4 73,85.8 72,84.1 71,82.2 69.9,79.9 62.1,89.1 52.3,93.7 40.5,93.7 c -8.4,0 -15.1,-2.4 -20,-7.2 -4.9,-4.8 -7.4,-11.2 -7.4,-19.2 0,-8.5 3,-15.4 9.1,-20.6 6.1,-5.2 14.2,-7.8 24.5,-7.8 3.4,0 6.9,0.3 10.6,0.8 3.7,0.5 7.5,1.3 11.5,2.2 V 34.6 C 68.8,27 67.2,21.7 64.1,18.6 60.9,15.5 55.5,14 47.8,14 c -3.5,0 -7.1,0.4 -10.8,1.3 -3.7,0.9 -7.3,2 -10.8,3.4 -1.6,0.7 -2.8,1.1 -3.5,1.3 -0.7,0.2 -1.2,0.3 -1.6,0.3 -1.4,0 -2.1,-1 -2.1,-3.1 V 12.3 C 19,10.7 19.2,9.5 19.7,8.8 20.2,8.1 21.1,7.4 22.5,6.7 26,4.9 30.2,3.4 35.1,2.2 40,0.9 45.2,0.3 50.7,0.3 62.6,0.3 71.3,3 76.9,8.4 82.4,13.8 85.2,22 85.2,33 V 65.4 Z M 44.8,80.6 c 3.3,0 6.7,-0.6 10.3,-1.8 3.6,-1.2 6.8,-3.4 9.5,-6.4 1.6,-1.9 2.8,-4 3.4,-6.4 0.6,-2.4 1,-5.3 1,-8.7 v -4.2 c -2.9,-0.7 -6,-1.3 -9.2,-1.7 -3.2,-0.4 -6.3,-0.6 -9.4,-0.6 -6.7,0 -11.6,1.3 -14.9,4 -3.3,2.7 -4.9,6.5 -4.9,11.5 0,4.7 1.2,8.2 3.7,10.6 2.4,2.5 5.9,3.7 10.5,3.7 z m 80.3,10.8 c -1.8,0 -3,-0.3 -3.8,-1 -0.8,-0.6 -1.5,-2 -2.1,-3.9 L 95.7,9.2 c -0.6,-2 -0.9,-3.3 -0.9,-4 0,-1.6 0.8,-2.5 2.4,-2.5 h 9.8 c 1.9,0 3.2,0.3 3.9,1 0.8,0.6 1.4,2 2,3.9 l 16.8,66.2 15.6,-66.2 c 0.5,-2 1.1,-3.3 1.9,-3.9 0.8,-0.6 2.2,-1 4,-1 h 8 c 1.9,0 3.2,0.3 4,1 0.8,0.6 1.5,2 1.9,3.9 l 15.8,67 17.3,-67 c 0.6,-2 1.3,-3.3 2,-3.9 0.8,-0.6 2.1,-1 3.9,-1 h 9.3 c 1.6,0 2.5,0.8 2.5,2.5 0,0.5 -0.1,1 -0.2,1.6 -0.1,0.6 -0.3,1.4 -0.7,2.5 l -24.1,77.3 c -0.6,2 -1.3,3.3 -2.1,3.9 -0.8,0.6 -2.1,1 -3.8,1 h -8.6 c -1.9,0 -3.2,-0.3 -4,-1 -0.8,-0.7 -1.5,-2 -1.9,-4 L 155,22 139.6,86.4 c -0.5,2 -1.1,3.3 -1.9,4 -0.8,0.7 -2.2,1 -4,1 z m 128.5,2.7 c -5.2,0 -10.4,-0.6 -15.4,-1.8 -5,-1.2 -8.9,-2.5 -11.5,-4 -1.6,-0.9 -2.7,-1.9 -3.1,-2.8 -0.4,-0.9 -0.6,-1.9 -0.6,-2.8 v -5.1 c 0,-2.1 0.8,-3.1 2.3,-3.1 0.6,0 1.2,0.1 1.8,0.3 0.6,0.2 1.5,0.6 2.5,1 3.4,1.5 7.1,2.7 11,3.5 4,0.8 7.9,1.2 11.9,1.2 6.3,0 11.2,-1.1 14.6,-3.3 3.4,-2.2 5.2,-5.4 5.2,-9.5 0,-2.8 -0.9,-5.1 -2.7,-7 -1.8,-1.9 -5.2,-3.6 -10.1,-5.2 L 245,51 c -7.3,-2.3 -12.7,-5.7 -16,-10.2 -3.3,-4.4 -5,-9.3 -5,-14.5 0,-4.2 0.9,-7.9 2.7,-11.1 1.8,-3.2 4.2,-6 7.2,-8.2 3,-2.3 6.4,-4 10.4,-5.2 4,-1.2 8.2,-1.7 12.6,-1.7 2.2,0 4.5,0.1 6.7,0.4 2.3,0.3 4.4,0.7 6.5,1.1 2,0.5 3.9,1 5.7,1.6 1.8,0.6 3.2,1.2 4.2,1.8 1.4,0.8 2.4,1.6 3,2.5 0.6,0.8 0.9,1.9 0.9,3.3 v 4.7 c 0,2.1 -0.8,3.2 -2.3,3.2 -0.8,0 -2.1,-0.4 -3.8,-1.2 -5.7,-2.6 -12.1,-3.9 -19.2,-3.9 -5.7,0 -10.2,0.9 -13.3,2.8 -3.1,1.9 -4.7,4.8 -4.7,8.9 0,2.8 1,5.2 3,7.1 2,1.9 5.7,3.8 11,5.5 l 14.2,4.5 c 7.2,2.3 12.4,5.5 15.5,9.6 3.1,4.1 4.6,8.8 4.6,14 0,4.3 -0.9,8.2 -2.6,11.6 -1.8,3.4 -4.2,6.4 -7.3,8.8 -3.1,2.5 -6.8,4.3 -11.1,5.6 -4.5,1.4 -9.2,2.1 -14.3,2.1 z" />
      <g
         id="Group"
         fill="#ff9900"
         transform="translate(0,112)">
        <path
           id="Path"
           d="M 272.5,30.7 C 239.6,55 191.8,67.9 150.7,67.9 93.1,67.9 41.2,46.6 2,11.2 -1.1,8.4 1.7,4.6 5.4,6.8 c 42.4,24.6 94.7,39.5 148.8,39.5 36.5,0 76.6,-7.6 113.5,-23.2 5.5,-2.5 10.2,3.6 4.8,7.6 z" />
        <path
           id="path8"
           d="m 286.2,15.1 c -4.2,-5.4 -27.8,-2.6 -38.5,-1.3 -3.2,0.4 -3.7,-2.4 -0.8,-4.5 18.8,-13.2 49.7,-9.4 53.3,-5 3.6,4.5 -1,35.4 -18.6,50.2 -2.7,2.3 -5.3,1.1 -4.1,-1.9 4,-9.9 12.9,-32.2 8.7,-37.5 z" />
      </g>
    </g>
  </g>
  <metadata
     id="metadata19">
    <rdf:RDF>
      <cc:Work
         rdf:about="">
        <dc:title>Amazon_Web_Services_Logo</dc:title>
      </cc:Work>
    </rdf:RDF>
  </metadata>
</svg>
