<?xml version="1.0" encoding="UTF-8" standalone="no"?>
<svg
   width="845.63721"
   height="400"
   version="1.1"
   id="svg12"
   sodipodi:docname="google.svg"
   inkscape:version="1.1 (ce6663b3b7, 2021-05-25)"
   xmlns:inkscape="http://www.inkscape.org/namespaces/inkscape"
   xmlns:sodipodi="http://sodipodi.sourceforge.net/DTD/sodipodi-0.dtd"
   xmlns="http://www.w3.org/2000/svg"
   xmlns:svg="http://www.w3.org/2000/svg">
  <defs
     id="defs16" />
  <g
     id="g23"
     transform="matrix(7.5809264,0,0,7.5809264,-32.036995,-27.541506)">
    <path
       d="m 64.87,11.572 1.144,0.02 3.108,-3.108 0.15,-1.317 c -2.47,-2.197 -5.72,-3.534 -9.277,-3.534 -6.44,0 -11.876,4.382 -13.486,10.318 0.34,-0.237 1.065,-0.06 1.065,-0.06 l 6.212,-1.022 c 0,0 0.32,-0.53 0.48,-0.497 a 7.76,7.76 0 0 1 10.605,-0.8 z"
       fill="#ea4335"
       id="path2" />
    <path
       d="M 73.5,13.962 A 13.99,13.99 0 0 0 69.284,7.166 l -4.402,4.402 a 7.75,7.75 0 0 1 2.895,6.039 v 0.777 c 2.142,0 3.88,1.743 3.88,3.88 0,2.137 -1.743,3.88 -3.88,3.88 h -7.762 l -0.777,0.78 v 4.658 l 0.777,0.773 h 7.762 A 10.11,10.11 0 0 0 77.86,22.265 c -0.004,-3.436 -1.736,-6.48 -4.37,-8.303 z"
       fill="#4285f4"
       id="path4" />
    <path
       d="m 52.234,32.362 h 7.76 V 26.15 h -7.76 a 3.84,3.84 0 0 1 -1.597,-0.347 l -1.12,0.343 -3.108,3.108 -0.272,1.05 a 9.96,9.96 0 0 0 6.098,2.06 z"
       fill="#34a853"
       id="path6" />
    <path
       d="m 52.234,12.175 a 10.11,10.11 0 0 0 -10.094,10.094 10.08,10.08 0 0 0 4,8.04 l 4.5,-4.5 a 3.88,3.88 0 0 1 -2.288,-3.538 c 0,-2.142 1.743,-3.88 3.88,-3.88 a 3.89,3.89 0 0 1 3.538,2.288 l 4.5,-4.5 c -1.846,-2.43 -4.76,-4 -8.04,-4 z"
       fill="#fbbc05"
       id="path8" />
    <path
       d="m 12,51.937 c -2.12,0 -3.94,-0.75 -5.474,-2.25 -1.534,-1.5 -2.3,-3.304 -2.3,-5.408 0,-2.104 0.765,-3.908 2.3,-5.408 C 8.061,37.371 9.883,36.62 12,36.62 a 7.32,7.32 0 0 1 5.249,2.11 l -1.477,1.477 a 5.32,5.32 0 0 0 -3.773,-1.495 c -1.53,0 -2.83,0.54 -3.896,1.627 A 5.41,5.41 0 0 0 6.506,44.28 c 0,1.546 0.53,2.857 1.597,3.94 a 5.25,5.25 0 0 0 3.896,1.627 c 1.558,0 2.845,-0.5 3.87,-1.534 0.6,-0.6 1,-1.5 1.14,-2.635 h -5.006 v -2.092 h 7.044 c 0.075,0.372 0.1,0.8 0.1,1.3 0,2.056 -0.603,3.686 -1.813,4.895 -1.372,1.435 -3.15,2.15 -5.345,2.15 z m 16.37,-1.4 c -0.96,0.94 -2.13,1.4 -3.512,1.4 -1.382,0 -2.554,-0.47 -3.512,-1.4 -0.958,-0.93 -1.438,-2.113 -1.438,-3.52 0,-1.407 0.48,-2.58 1.438,-3.52 0.958,-0.94 2.13,-1.4 3.512,-1.4 1.382,0 2.554,0.47 3.512,1.4 0.958,0.93 1.438,2.116 1.438,3.52 0,1.404 -0.48,2.58 -1.438,3.52 z m -5.474,-1.38 a 2.63,2.63 0 0 0 1.963,0.849 c 0.76,0 1.414,-0.282 1.963,-0.85 0.549,-0.568 0.822,-1.28 0.822,-2.14 0,-0.87 -0.27,-1.588 -0.813,-2.15 -0.543,-0.562 -1.198,-0.84 -1.972,-0.84 a 2.64,2.64 0 0 0 -1.972,0.84 c -0.543,0.56 -0.813,1.276 -0.813,2.15 0,0.858 0.273,1.573 0.822,2.14 z m 16.273,1.38 c -0.96,0.94 -2.13,1.4 -3.512,1.4 -1.382,0 -2.554,-0.47 -3.512,-1.4 -0.958,-0.93 -1.438,-2.113 -1.438,-3.52 0,-1.407 0.48,-2.58 1.438,-3.52 0.958,-0.94 2.13,-1.4 3.512,-1.4 1.382,0 2.554,0.47 3.512,1.4 0.958,0.93 1.438,2.116 1.438,3.52 0,1.404 -0.48,2.58 -1.438,3.52 z m -5.474,-1.38 a 2.63,2.63 0 0 0 1.963,0.849 c 0.76,0 1.414,-0.282 1.963,-0.85 0.549,-0.568 0.822,-1.28 0.822,-2.14 0,-0.87 -0.27,-1.588 -0.813,-2.15 -0.543,-0.562 -1.198,-0.84 -1.972,-0.84 a 2.64,2.64 0 0 0 -1.972,0.84 c -0.543,0.56 -0.813,1.276 -0.813,2.15 0,0.858 0.273,1.573 0.822,2.14 z m 12.573,7.22 c -1.095,0 -2.017,-0.294 -2.764,-0.88 -0.747,-0.586 -1.282,-1.264 -1.606,-2.038 l 1.888,-0.783 c 0.198,0.474 0.5,0.885 0.933,1.234 0.433,0.349 0.94,0.522 1.552,0.522 0.822,0 1.468,-0.25 1.933,-0.747 0.465,-0.497 0.7,-1.216 0.7,-2.15 v -0.7 h -0.075 c -0.6,0.747 -1.477,1.122 -2.596,1.122 -1.258,0 -2.36,-0.48 -3.307,-1.438 a 4.76,4.76 0 0 1 -1.42,-3.476 4.82,4.82 0 0 1 1.42,-3.503 c 0.945,-0.963 2.05,-1.447 3.307,-1.447 0.56,0 1.068,0.105 1.522,0.318 0.454,0.213 0.813,0.474 1.074,0.783 h 0.075 V 42.4 h 2.056 v 8.857 c 0,1.72 -0.438,3.004 -1.318,3.86 -0.88,0.85 -2.002,1.28 -3.373,1.28 z m 0.15,-6.372 a 2.41,2.41 0 0 0 1.879,-0.849 c 0.504,-0.567 0.756,-1.273 0.756,-2.122 0,-0.858 -0.252,-1.576 -0.756,-2.15 a 2.4,2.4 0 0 0 -1.879,-0.858 c -0.76,0 -1.408,0.288 -1.942,0.858 -0.534,0.57 -0.804,1.288 -0.804,2.15 0,0.846 0.267,1.555 0.804,2.122 0.537,0.567 1.183,0.85 1.942,0.85 z M 54.62,37.14 v 14.5 h -2.167 v -14.5 z m 5.94,14.796 c -1.396,0 -2.56,-0.474 -3.494,-1.42 -0.934,-0.946 -1.402,-2.116 -1.402,-3.512 0,-1.444 0.45,-2.63 1.354,-3.55 a 4.45,4.45 0 0 1 3.298,-1.384 c 0.597,0 1.153,0.108 1.663,0.327 a 3.92,3.92 0 0 1 1.27,0.84 5.84,5.84 0 0 1 0.804,0.999 6.12,6.12 0 0 1 0.486,0.972 l 0.225,0.56 -6.594,2.732 c 0.5,0.996 1.3,1.495 2.392,1.495 0.996,0 1.807,-0.453 2.428,-1.363 l 1.68,1.122 c -0.375,0.56 -0.903,1.065 -1.588,1.513 -0.685,0.448 -1.528,0.67 -2.524,0.67 z m -2.746,-5.08 4.4,-1.83 c -0.126,-0.312 -0.354,-0.564 -0.7,-0.756 a 2.26,2.26 0 0 0 -1.14,-0.288 c -0.636,0 -1.23,0.26 -1.783,0.783 -0.553,0.523 -0.82,1.222 -0.795,2.092 z m 18.33,5.08 c -1.97,0 -3.62,-0.666 -4.952,-2 -1.332,-1.334 -2,-2.995 -2,-4.988 0,-1.993 0.666,-3.656 2,-4.988 1.334,-1.332 2.983,-2 4.952,-2 2.017,0 3.656,0.73 4.913,2.185 l -1.195,1.16 c -0.9,-1.134 -2.15,-1.7 -3.72,-1.7 -1.46,0 -2.686,0.492 -3.7,1.477 -1.014,0.985 -1.504,2.272 -1.504,3.866 0,1.594 0.5,2.884 1.504,3.87 1.004,0.986 2.233,1.477 3.7,1.477 1.606,0 2.977,-0.648 4.1,-1.942 l 1.195,1.195 a 6.51,6.51 0 0 1 -2.3,1.747 7.02,7.02 0 0 1 -3.004,0.642 z M 84.7,51.64 H 82.98 V 38.263 h 1.72 z m 2.803,-8.06 c 0.885,-0.927 2,-1.393 3.382,-1.393 1.382,0 2.497,0.465 3.382,1.393 0.885,0.928 1.327,2.1 1.327,3.485 0,1.385 -0.44,2.557 -1.327,3.485 -0.887,0.928 -2,1.393 -3.382,1.393 -1.382,0 -2.497,-0.465 -3.382,-1.393 -0.885,-0.928 -1.327,-2.1 -1.327,-3.485 0,-1.385 0.44,-2.557 1.327,-3.485 z m 1.28,5.883 c 0.6,0.603 1.294,0.906 2.1,0.906 0.806,0 1.5,-0.303 2.1,-0.906 0.6,-0.603 0.888,-1.405 0.888,-2.4 0,-0.995 -0.297,-1.798 -0.888,-2.4 -0.591,-0.602 -1.294,-0.906 -2.1,-0.906 -0.806,0 -1.5,0.303 -2.1,0.906 -0.6,0.603 -0.888,1.405 -0.888,2.4 0,0.995 0.297,1.798 0.888,2.4 z m 16.32,2.177 h -1.645 v -1.27 h -0.075 c -0.26,0.435 -0.66,0.807 -1.195,1.1 -0.535,0.293 -1.1,0.46 -1.7,0.46 -1.147,0 -2.014,-0.348 -2.605,-1.047 -0.591,-0.699 -0.888,-1.633 -0.888,-2.803 v -5.606 h 1.72 v 5.324 c 0,1.708 0.753,2.56 2.26,2.56 a 2.1,2.1 0 0 0 1.738,-0.858 3.13,3.13 0 0 0 0.672,-1.981 v -5.045 h 1.72 v 9.157 z m 5.828,0.297 c -1.183,0 -2.206,-0.468 -3.064,-1.402 -0.858,-0.934 -1.288,-2.092 -1.288,-3.476 0,-1.384 0.43,-2.542 1.288,-3.476 0.858,-0.934 1.882,-1.402 3.064,-1.402 0.696,0 1.324,0.15 1.88,0.447 0.556,0.297 0.97,0.672 1.243,1.122 h 0.075 l -0.075,-1.27 v -4.22 h 1.72 v 13.38 h -1.645 v -1.27 h -0.075 c -0.273,0.447 -0.687,0.822 -1.243,1.122 -0.555,0.294 -1.183,0.444 -1.88,0.444 z m 0.28,-1.57 a 2.74,2.74 0 0 0 2.065,-0.897 c 0.567,-0.597 0.85,-1.402 0.85,-2.4 0,-0.998 -0.282,-1.813 -0.85,-2.4 a 2.74,2.74 0 0 0 -2.065,-0.897 c -0.798,0 -1.483,0.303 -2.056,0.906 -0.573,0.603 -0.858,1.405 -0.858,2.4 0,0.995 0.285,1.798 0.858,2.4 a 2.73,2.73 0 0 0 2.056,0.906 z"
       fill="#5f6368"
       id="path10" />
  </g>
</svg>
