<?xml version="1.0" encoding="UTF-8" standalone="no"?>
<svg xmlns="http://www.w3.org/2000/svg" height="167px" width="716px" version="1.1" xmlns:xlink="http://www.w3.org/1999/xlink" viewBox="0 0 716 167"><!-- Generator: Sketch 48.2 (47327) - http://www.bohemiancoding.com/sketch -->
 <title>ibm-cloud-logo</title>
 <desc>Created with Sketch.</desc>
 <defs>
  <path id="path-1" d="m139.72 68.901c-0.33-0.447-0.67-0.89-1.01-1.327-1.41-1.782-2.91-3.479-4.52-5.083-22.14-22.134-58.038-22.129-80.177 0.011-22.14 22.14-22.144 58.038-0.009 80.178l-5.029 5.03c-14.961-14.98-20.932-35.53-17.913-54.958-13.763 4.477-23.412 17.338-23.507 32.178-0.0673 9.04 3.461 17.75 9.809 24.19 6.349 6.44 14.997 10.1 24.042 10.17h97.834 0.32c16.42 0.01 31.31-9.64 38.02-24.63s3.98-32.53-6.97-44.77l5.3-4.74c12.82 14.328 16.01 34.85 8.17 52.4-7.85 17.54-25.27 28.84-44.49 28.85h-0.38-97.831c-10.935-0.08-21.393-4.49-29.07-12.28-7.6772-7.79-11.945-18.31-11.863-29.24 0.12296-19.32 13.643-35.859 32.34-39.955 2.887-10.049 8.288-19.529 16.205-27.445 24.913-24.914 65.299-24.922 90.229-0.017 1.8 1.803 3.5 3.711 5.07 5.714 1.1 1.393 2.14 2.838 3.1 4.295l-2.59 1.711c11.74 1.268 22.89 6.782 31.11 15.967l-5.3 4.74c-11.47-12.824-29.65-17.272-45.75-11.192-16.09 6.081-26.791 21.432-26.919 38.642l-7.11-0.05c0.15-20.147 12.679-38.124 31.519-45.242 5.66-2.139 11.55-3.165 17.37-3.147zm-114.27-2.394c-0.623 0-1.235-0.164-1.774-0.476l-16.792-9.696c-1.5585-0.85-2.292-2.688-1.7468-4.377 0.3562-0.993 1.1339-1.776 2.1235-2.139 0.9897-0.363 2.0894-0.268 3.0023 0.258l16.793 9.696c1.716 0.944 2.395 3.066 1.545 4.831-0.614 1.172-1.828 1.905-3.151 1.903zm29.021-29.013c-1.271 0.001-2.447-0.677-3.082-1.778l-9.695-16.793c-0.925-1.515-0.641-3.474 0.676-4.665 0.805-0.681 1.87-0.971 2.908-0.79 1.039 0.18 1.944 0.812 2.472 1.725l9.687 16.779c0.99 1.627 0.584 3.739-0.938 4.884-0.595 0.415-1.303 0.637-2.028 0.638zm36.075-14.408v-19.128c-0.045-1.96 1.441-3.617 3.394-3.7836 0.97-0.04381 1.916 0.31073 2.617 0.9814 0.702 0.6706 1.099 1.599 1.099 2.5696v19.593c0 0.971-0.397 1.899-1.099 2.57-0.701 0.671-1.647 1.025-2.617 0.981-1.953-0.166-3.439-1.823-3.394-3.783zm43.188 14.408c-0.73-0.001-1.43-0.223-2.03-0.637-1.52-1.145-1.93-3.259-0.94-4.887l9.69-16.777c0.53-0.913 1.43-1.545 2.47-1.725 1.04-0.181 2.1 0.109 2.91 0.79 1.32 1.19 1.6 3.15 0.67 4.666l-9.69 16.792c-0.64 1.101-1.81 1.779-3.08 1.778zm29.02 29.013c-1.32 0.002-2.54-0.731-3.15-1.902-0.85-1.765-0.17-3.887 1.54-4.832l16.65-9.609c1.5-0.912 3.44-0.631 4.62 0.67 0.69 0.803 0.98 1.872 0.81 2.916-0.18 1.044-0.81 1.954-1.73 2.484l-16.97 9.797c-0.54 0.312-1.15 0.476-1.77 0.476z"/>
  <linearGradient id="linearGradient-3" y1="-12.367%" x2="21.744%" x1="82.474%" y2="104.27%">
   <stop stop-color="#50FFD2" offset="0"/>
   <stop stop-color="#0064FF" offset="1"/>
  </linearGradient>
 </defs>
 <g id="Page-1" fill-rule="evenodd" fill="none">
  <g id="ibm-cloud-logo">
   <g fill-rule="nonzero">
    <path id="IBM_Cloud" fill="#000" d="m235.99 138.68v-7.22h10.11v-57.562h-10.11v-7.22h28.88v7.22h-10.11v57.562h10.11v7.22h-28.88zm44.66-72.002h29.61c11.86 0 19.18 7.323 19.18 18.567 0 10.727-6.91 14.543-11.65 15.265v0.62c5.15 0.31 14.13 4.74 14.13 16.71 0 11.86-7.95 20.84-18.57 20.84h-32.7v-72.002zm8.67 31.151h19.9c6.81 0 10.94-3.611 10.94-10.005v-3.508c0-6.395-4.13-10.005-10.94-10.005h-19.9v23.518zm0 33.211h21.35c7.43 0 11.96-3.92 11.96-11.14v-3.5c0-7.22-4.53-11.14-11.96-11.14h-21.35v25.78zm114.7-53.016h-0.52l-6.08 12.068-17.23 31.358-17.12-31.358-6.09-11.965h-0.51v60.553h-8.46v-72.002h11.35l20.63 38.782h0.41l20.73-38.782h11.35v72.002h-8.46v-60.656zm43.42 25.166c0-24.341 12.48-37.75 31.88-37.75 13.2 0 21.66 5.364 26.92 16.917l-13.51 7.014c-1.86-5.983-5.68-10.006-13.41-10.006-9.18 0-15.27 6.189-15.27 17.536v11.549c0 11.35 6.09 17.54 15.27 17.54 7.73 0 12.17-4.85 14.33-10.73l12.8 7.43c-5.37 10.93-13.93 17.22-27.13 17.22-19.4 0-31.88-12.37-31.88-36.72zm84.28 35.49c-10.42 0-15.17-5.26-15.17-14.86v-61.475h15.27v64.465h6.81v11.87h-6.91zm12.68-27.13c0-17.434 9.49-28.265 25.38-28.265 15.88 0 25.37 10.831 25.37 28.265 0 17.43-9.49 28.36-25.37 28.36-15.89 0-25.38-10.93-25.38-28.36zm34.87 5.57v-11.04c0-6.807-3.51-10.727-9.49-10.727-5.99 0-9.49 3.92-9.49 10.727v11.04c0 6.81 3.5 10.73 9.49 10.73 5.98 0 9.49-3.92 9.49-10.73zm58.69 12.48h-0.52c-1.85 5.47-6.29 10.31-15.16 10.31-11.04 0-16.92-7.73-16.92-21.35v-34.037h15.27v32.697c0 6.6 2.17 10.32 7.74 10.32 4.74 0 9.59-2.69 9.59-7.84v-35.177h15.26v54.157h-15.26v-9.08zm62.71 0h-0.51c-1.55 5.88-7.53 10.31-14.55 10.31-13.72 0-20.83-10-20.83-28.36 0-18.363 7.11-28.265 20.83-28.265 7.02 0 13 4.332 14.55 10.315h0.51v-31.255h15.27v76.335h-15.27v-9.08zm0-10.01v-15.99c0-4.946-4.23-7.938-10-7.938-5.78 0-10.01 4.438-10.01 11.248v9.38c0 6.81 4.23 11.25 10.01 11.25 5.77 0 10-3 10-7.95z"/>
    <mask id="mask-2" fill="white">
     <use xlink:href="#path-1"/>
    </mask>
    <rect id="Rectangle-path" mask="url(#mask-2)" height="166.23" width="188.05" y=".1709" x=".27391" fill="url(#linearGradient-3)"/>
   </g>
  </g>
 </g>
</svg>
