<?xml version="1.0" encoding="UTF-8" standalone="no"?>
<svg
   width="120"
   height="120"
   viewBox="0 0 399.98614 399.98614"
   version="1.1"
   id="svg3"
   sodipodi:docname="mk8.svg"
   inkscape:version="1.1 (ce6663b3b7, 2021-05-25)"
   xmlns:inkscape="http://www.inkscape.org/namespaces/inkscape"
   xmlns:sodipodi="http://sodipodi.sourceforge.net/DTD/sodipodi-0.dtd"
   xmlns="http://www.w3.org/2000/svg"
   xmlns:svg="http://www.w3.org/2000/svg">
  <defs
     id="defs7" />
  <rect
     style="fill:#e95420;stroke-width:11.8286"
     id="rect846"
     width="399.98615"
     height="399.98615"
     x="0"
     y="0" />
  <path
     id="Selection"
     fill="none"
     stroke="#000000"
     stroke-width="1"
     d="m 106.23,164.03 c 8.78,-2.9 9.18,6.52 4.63,8.9 -4.28,2.24 -10.6,-3.25 -4.63,-8.9 z M 304,195 c -3.02,-1.78 -4.35,-2.74 -5.95,-6.02 -11.87,-24.21 31.47,-34.43 34.58,-9.98 0.91,7.11 -3.93,11.75 -7.63,17 10.12,4.17 12.09,18.23 4.66,25.66 -7.99,8 -32.66,8.61 -34.46,-9.66 -0.75,-7.57 3.47,-12.4 8.8,-17 z M 35,166 c 0,0 7.47,0.99 7.47,0.99 0,0 6.78,11.01 6.78,11.01 0,0 12.75,28 12.75,28 0,0 14.75,-31 14.75,-31 2.01,-4 4.42,-10.07 10.11,-8.67 4.06,1 4,11.12 4.13,14.67 0,0 2.01,29 2.01,29 0,0 1,16 1,16 0,0 -9,0 -9,0 0,0 -1,-21 -1,-21 0,0 -2,-23 -2,-23 0,0 -11.86,27 -11.86,27 -1.28,2.89 -2.92,7.86 -6.27,8.67 -5.41,1.3 -7.02,-3.83 -8.73,-7.67 0,0 -13.14,-28 -13.14,-28 0,0 -2,33 -2,33 0,0 -1.02,9.4 -1.02,9.4 0,0 -7.98,1.6 -7.98,1.6 0,-19.93 1.39,-40.24 4,-60 z m 210,0 c 0,0 9,0 9,0 0,0 0,25 0,25 0,0 16.96,-16 16.96,-16 0,0 8.08,-7.98 8.08,-7.98 0,0 9.96,-1.02 9.96,-1.02 -2.34,4.95 -12.73,15.17 -17.18,20.04 -1.66,1.81 -5.78,5.43 -5.78,7.92 0,2.59 6.03,7.16 7.96,9.05 6.03,5.92 14.42,14.9 17,22.99 -2.75,0 -7.35,0.35 -9.7,-1.02 -2.32,-1.35 -7.42,-8.49 -9.59,-10.98 -5.07,-5.83 -11.02,-11.11 -17.71,-15 0,0 0,27 0,27 0,0 -9,0 -9,0 0,0 0,-60 0,-60 z m 68,6.38 c -4.11,1.14 -7.17,2.95 -7.73,7.62 -0.67,5.59 6.09,12.84 11.73,11.3 5.16,-1.41 9.11,-9.75 5.26,-15.17 -2.39,-3.37 -5.46,-3.88 -9.26,-3.75 z M 157,225 c -3.25,0.86 -6.63,1.71 -10,1.91 -8.26,0.48 -16.56,-2.64 -21,-9.91 -2.42,-3.98 -2.95,-8.45 -3,-13 -0.13,-13.07 5.67,-23.64 20,-23.99 5.5,-0.13 7.81,0.1 13,1.99 0,0 -2,7.23 -2,7.23 -4.76,-1.08 -10.45,-2.16 -14.96,0 -9.51,5.27 -9.15,21.2 -1,27.26 5.43,4.03 12.11,2.41 17.96,0.51 0,0 1,8 1,8 z m 7,1 c 0,0 0,-36 0,-36 0.02,-2.33 -0.24,-5.4 1.6,-7.15 2.8,-2.66 12.56,-2.95 16.4,-2.83 1.92,0.05 4.69,0.05 6,1.72 1.52,1.91 0.51,5.16 0,7.26 0,0 -16,-1 -16,-1 0,0 0,38 0,38 0,0 -8,0 -8,0 z m 45,-45.47 c 6.5,-1.06 13.62,-0.51 18.82,4 10.68,9.26 11.66,37.24 -9.82,41.8 -26.98,5.73 -35.99,-37.73 -9,-45.8 z M 342,217 c 4.98,1.12 10.85,3.01 15.99,1.57 3.65,-1.02 6.25,-3.77 3.52,-7.36 -4.14,-5.44 -14.9,-5.12 -19.06,-13.23 -3.32,-6.46 0.09,-13.78 6.56,-16.5 6.23,-2.61 14.8,-1.74 20.99,0.52 0,0 -1,7 -1,7 -4.06,-0.57 -10.27,-2.69 -13.98,-1.26 -2.48,0.96 -4.98,3.27 -3.85,6.16 2.05,5.27 13.58,6.09 18.32,12.2 1.83,2.37 2.4,4.97 2.46,7.9 0.2,10.81 -10.1,13.31 -18.95,12.96 -4.06,-0.16 -8.02,-1.21 -12,-1.96 0,0 1,-8 1,-8 z M 105,181 c 0,0 8,0 8,0 0,0 0,45 0,45 0,0 -8,0 -8,0 0,0 0,-45 0,-45 z m 106,7.43 c -15.36,6.12 -9.44,34.17 6,30.14 11.04,-2.88 11.57,-21.89 4.66,-28 -3.25,-2.87 -6.67,-2.73 -10.66,-2.14 z m 100.02,11.04 c -9.92,3.93 -9.51,18.65 1.98,20.16 6.56,0.87 12.83,-3.54 11.76,-10.63 -0.96,-6.33 -7.89,-9.86 -13.74,-9.53 z"
     style="fill:#ffffff;fill-opacity:1;stroke:none" />
</svg>
